<?xml version="1.0" encoding="UTF-8"?>
<svg width="45px" height="46px" viewBox="0 0 45 46" version="1.1" xmlns="http://www.w3.org/2000/svg" xmlns:xlink="http://www.w3.org/1999/xlink">
    <title>logo-negative copy</title>
    <g id="Symbols" stroke="none" stroke-width="1" fill="none" fill-rule="evenodd">
        <g id="menu-icon-" transform="translate(-36.000000, -16.000000)" fill-rule="nonzero">
            <g id="logo-negative-copy" transform="translate(36.000000, 16.000000)">
                <path d="M41.0846075,3.55271368e-15 L2.99014611,3.55271368e-15 C1.34556575,3.55271368e-15 0,1.37389381 0,3.05309735 L0,42.0106195 C0,43.689823 1.34556575,45.0637168 2.99014611,45.0637168 L41.0846075,45.0637168 C42.7291879,45.0637168 44.0747537,43.689823 44.0747537,42.0106195 L44.0747537,3.05309735 C44.0747537,1.37389381 42.7291879,3.55271368e-15 41.0846075,3.55271368e-15 Z M43.0880054,42.0106195 C43.0880054,43.1097345 42.1909616,43.9951327 41.1444105,43.9951327 L3.02004757,43.9951327 C1.94359497,43.9951327 1.0764526,43.0792035 1.0764526,42.0106195 L1.0764526,3.05309735 C1.0764526,1.9539823 1.97349643,1.06858407 3.02004757,1.06858407 L41.114509,1.06858407 C42.1909616,1.06858407 43.058104,1.98451327 43.058104,3.05309735 L43.0880054,42.0106195 L43.0880054,42.0106195 Z" id="Shape" fill="#FFFFFF"></path>
                <path d="M43.0880054,42.0106195 C43.0880054,43.1097345 42.1909616,43.9951327 41.1444105,43.9951327 L3.02004757,43.9951327 C1.94359497,43.9951327 1.0764526,43.0792035 1.0764526,42.0106195 L1.0764526,3.05309735 C1.0764526,1.9539823 1.97349643,1.06858407 3.02004757,1.06858407 L41.114509,1.06858407 C42.1909616,1.06858407 43.058104,1.98451327 43.058104,3.05309735 L43.0880054,42.0106195 L43.0880054,42.0106195 Z" id="Path" fill="#00205B"></path>
                <g id="Group" transform="translate(6.189602, 32.423894)" fill="#FFFFFF">
                    <path d="M20.9310228,4.51858407 C21.8878695,4.12168142 22.3662929,3.45 22.3662929,2.35088496 C22.3662929,2.28982301 22.3662929,2.22876106 22.3662929,2.16769912 C22.2765885,0.702212389 21.140333,0 19.7947672,0 L16.1766905,0 L16.1766905,7.38849558 L17.9109752,7.38849558 L17.9109752,4.73230088 L19.1369351,4.73230088 L20.4825008,7.38849558 L22.4260958,7.38849558 L20.9310228,4.51858407 Z M19.4957526,3.48053097 L17.7913694,3.48053097 L17.7913694,1.31283186 L19.4957526,1.31283186 C20.1535848,1.31283186 20.5423038,1.61814159 20.5423038,2.38141593 C20.6021067,3.11415929 20.2133877,3.48053097 19.4957526,3.48053097 Z" id="Shape"></path>
                    <path d="M6.93713897,0.0305309735 L4.993544,0.0305309735 L3.7675841,3.26681416 L2.42201835,0.88539823 C2.1529052,0.457964602 1.52497452,0.0610619469 0.986748216,0.0610619469 L0,0.0610619469 L2.99014611,5.4039823 L2.21270812,7.4800885 L3.25925926,7.4800885 C3.7675841,7.4800885 4.33571186,7.08318584 4.51512063,6.59469027 L6.93713897,0.0305309735 Z" id="Path"></path>
                    <path d="M12.1399932,4.18274336 L9.68807339,4.18274336 L10.7346245,1.40442478 C10.8542304,1.09911504 11.0336391,1.09911504 11.1233435,1.40442478 L12.1399932,4.18274336 Z M12.5885151,5.46504425 L12.5885151,5.46504425 L13.3360516,7.44955752 L15.1600408,7.44955752 L12.7380224,0.946460177 C12.5586137,0.457964602 11.9605844,0.0610619469 11.4821611,0.0610619469 L9.35915732,0.0610619469 L6.63812436,7.44955752 L7.5351682,7.44955752 C8.04349303,7.44955752 8.6116208,7.05265487 8.79102956,6.56415929 L9.17974856,5.49557522 L12.5885151,5.49557522 L12.5885151,5.46504425 L12.5885151,5.46504425 Z" id="Shape"></path>
                    <path d="M26.9711179,1.43495575 C27.0907238,1.12964602 27.2701325,1.12964602 27.3598369,1.43495575 L28.406388,4.21327434 L25.9544682,4.21327434 L26.9711179,1.43495575 Z M25.5059463,5.46504425 L28.8848114,5.46504425 L29.2735304,6.53362832 C29.4529392,7.02212389 30.0210669,7.41902655 30.5293918,7.41902655 L31.4264356,7.41902655 L28.6455997,0.0305309735 L26.5524975,0.0305309735 C26.0441726,0.0305309735 25.4760449,0.427433628 25.2966361,0.915929204 L22.8746177,7.41902655 L24.6986069,7.41902655 L25.5059463,5.46504425 L25.5059463,5.46504425 L25.5059463,5.46504425 Z" id="Shape"></path>
                </g>
                <g id="Group" transform="translate(6.779493, 4.213274)" fill="#FFFFFF">
                    <path d="M21.4474858,14.4716814 C21.5371902,14.5327434 21.7465004,14.5327434 21.9558106,14.5327434 C22.7332486,14.5327434 24.2582231,14.5327434 25.155267,14.5327434 C23.5405881,13.0672566 22.5538399,9.4340708 22.5538399,7.26637168 C22.5538399,5.03761062 23.5405881,1.43495575 25.155267,0 C24.2881246,0 22.7631501,0 21.9558106,0 C21.7764019,0 21.5371902,0 21.4474858,0.0610619469 C21.4474858,0.0610619469 18.5769455,2.83938053 18.5769455,7.26637168 C18.5769455,11.6933628 21.4474858,14.4716814 21.4474858,14.4716814 Z" id="Path"></path>
                    <path d="M14.5402483,14.4716814 C14.6299527,14.5327434 14.8392629,14.5327434 15.0485731,14.5327434 C15.8260111,14.5327434 17.3509856,14.5327434 18.218128,14.5327434 C16.6034491,13.0672566 15.6167009,9.4340708 15.6167009,7.26637168 C15.6167009,5.03761062 16.663252,1.43495575 18.218128,0 C17.3509856,0 15.8260111,0 15.0485731,0 C14.8691644,0 14.6299527,0 14.5402483,0.0610619469 C14.5402483,0.0610619469 11.669708,2.90044248 11.669708,7.26637168 C11.7295109,11.6323009 14.5402483,14.4716814 14.5402483,14.4716814 Z" id="Path"></path>
                    <path d="M7.69281369,14.4716814 C7.78251807,14.5327434 7.9918283,14.5327434 8.17123707,14.5327434 C8.97857651,14.5327434 10.503551,14.5327434 11.3706934,14.5327434 C9.7560145,13.0672566 8.76926629,9.4340708 8.76926629,7.26637168 C8.76926629,5.03761062 9.7560145,1.43495575 11.3706934,0 C10.503551,0 8.97857651,0 8.17123707,0 C7.9918283,0 7.75261661,0 7.69281369,0.0610619469 C7.69281369,0.0610619469 4.82227342,2.83938053 4.82227342,7.26637168 C4.82227342,11.6933628 7.69281369,14.4716814 7.69281369,14.4716814 Z" id="Path"></path>
                    <path d="M30.1787124,20.2725664 C29.7002891,19.2650442 28.8331467,17.5247788 28.7135408,16.9446903 C28.7135408,16.9446903 28.205216,15.6318584 29.5806832,15.3876106 C30.148811,15.2960177 30.53753,14.8685841 30.5674314,14.3190265 L30.5674314,13.6473451 C30.5674314,13.5557522 30.477727,13.4641593 30.3880227,13.4641593 L28.1454131,13.4641593 C28.0856102,13.4641593 26.5307342,13.6473451 26.5307342,15.6013274 C26.4709313,18.9292035 26.5307342,19.3261062 25.6635918,19.509292 C25.5738874,19.509292 25.543986,19.4176991 25.543986,19.3871681 L25.543986,19.3871681 C25.543986,19.3261062 25.543986,19.3261062 25.543986,19.2955752 C25.543986,17.5247788 24.1685188,16.089823 22.4043325,16.089823 C21.5371902,16.089823 20.6999493,16.4867257 20.1916244,17.0668142 L20.1916244,17.0668142 C20.1916244,17.1278761 20.10192,17.1584071 20.0720186,17.1584071 C20.0122157,17.1584071 19.9524127,17.0973451 19.9524127,17.0668142 C19.384285,16.4867257 18.606847,16.089823 17.7397046,16.089823 C16.8725622,16.089823 16.0353213,16.4867257 15.5269965,17.0668142 L15.5269965,17.0668142 C15.5269965,17.1278761 15.4372921,17.1584071 15.4073906,17.1584071 C15.3475877,17.1584071 15.2877848,17.0973451 15.2877848,17.0668142 L15.2877848,17.0668142 C14.719657,16.4867257 13.9422191,16.089823 13.0750767,16.089823 C12.2079343,16.089823 11.3706934,16.4867257 10.8623686,17.0668142 L10.8623686,17.0668142 C10.8623686,17.1278761 10.7726642,17.1584071 10.7427627,17.1584071 C10.6829598,17.1584071 10.6231569,17.0973451 10.6231569,17.0668142 L10.6231569,17.0668142 C10.0550291,16.4867257 9.27759113,16.089823 8.41044875,16.089823 C6.67616401,16.089823 5.27079534,17.4942478 5.27079534,19.2955752 C5.27079534,19.3566372 5.27079534,19.3566372 5.27079534,19.3871681 L5.27079534,19.3871681 C5.27079534,19.4787611 5.18109096,19.509292 5.09138657,19.509292 C4.2242442,19.3871681 4.28404712,18.9292035 4.2242442,15.6013274 C4.2242442,13.6473451 2.66936822,13.4641593 2.6095653,13.4641593 L0.277251336,13.4641593 C0.187546953,13.4641593 0.0978425697,13.5557522 0.0978425697,13.6473451 L0.0978425697,14.3190265 C0.157645492,14.899115 0.486561564,15.3265487 1.08459079,15.3876106 C2.460058,15.6013274 1.95173316,16.9446903 1.95173316,16.9446903 C1.83212731,17.5247788 0.964984941,19.2345133 0.486561564,20.2725664 C0.187546953,20.9442478 -0.470285191,22.5318584 0.546364486,24.119469 C1.11449225,25.0353982 1.80222585,25.8597345 4.2242442,25.8597345 L26.65034,25.8597345 C29.0723584,25.9207965 29.7899934,25.0659292 30.3282197,24.119469 L30.3282197,24.119469 C31.1056577,22.5623894 30.5076285,20.9137168 30.1787124,20.2725664 Z M8.17123707,21.1579646 C7.12468593,21.1579646 6.31734648,20.3336283 6.31734648,19.2650442 C6.31734648,18.1964602 7.12468593,17.3721239 8.17123707,17.3721239 C9.2177882,17.3721239 10.0251277,18.1964602 10.0251277,19.2650442 C10.0550291,20.3030973 9.15798528,21.1579646 8.17123707,21.1579646 Z M12.8956679,21.1579646 C11.8491168,21.1579646 11.0417773,20.3336283 11.0417773,19.2650442 C11.0417773,18.1964602 11.8491168,17.3721239 12.8956679,17.3721239 C13.9422191,17.3721239 14.7495585,18.1964602 14.7495585,19.2650442 C14.7495585,20.3030973 13.9422191,21.1579646 12.8956679,21.1579646 Z M17.6200988,21.1579646 C16.5735476,21.1579646 15.7662082,20.3336283 15.7662082,19.2650442 C15.7662082,18.1964602 16.5735476,17.3721239 17.6200988,17.3721239 C18.6666499,17.3721239 19.4739894,18.1964602 19.4739894,19.2650442 C19.4739894,20.3030973 18.6666499,21.1579646 17.6200988,21.1579646 Z M22.3744311,21.1579646 C21.3278799,21.1579646 20.5205405,20.3336283 20.5205405,19.2650442 C20.5205405,18.1964602 21.3278799,17.3721239 22.3744311,17.3721239 C23.4209822,17.3721239 24.2283217,18.1964602 24.2283217,19.2650442 C24.2582231,20.3030973 23.4209822,21.1579646 22.3744311,21.1579646 Z" id="Shape"></path>
                </g>
            </g>
        </g>
    </g>
</svg>